<?xml version="1.0" standalone="no"?>
<!DOCTYPE svg PUBLIC "-//W3C//DTD SVG 20010904//EN"
 "http://www.w3.org/TR/2001/REC-SVG-20010904/DTD/svg10.dtd">
<svg version="1.0" xmlns="http://www.w3.org/2000/svg"
 width="386.000000pt" height="413.000000pt" viewBox="0 0 386.000000 413.000000"
 preserveAspectRatio="xMidYMid meet">

<g transform="translate(0.000000,413.000000) scale(0.100000,-0.100000)"
fill="#6C63FF" stroke="none">
<path d="M1830 4070 c-46 -11 -1511 -614 -1573 -648 -62 -33 -147 -125 -181
-194 -55 -112 -67 -268 -46 -563 51 -683 285 -1300 682 -1797 101 -127 301
-327 430 -431 134 -108 382 -271 518 -340 101 -51 126 -59 205 -69 130 -15
210 0 344 68 508 255 999 762 1280 1321 220 440 329 882 357 1448 10 210 -21
318 -121 433 -100 112 -149 136 -1180 562 -536 221 -594 238 -715 210z m921
-1532 c61 -56 108 -107 107 -113 -3 -12 -899 -963 -908 -964 -7 0 -423 540
-418 543 1 1 53 41 113 87 61 47 115 88 121 92 7 4 52 -45 109 -119 l98 -125
36 40 c60 68 625 661 629 661 2 0 53 -46 113 -102z"/>
</g>
</svg>
