<svg width="678" height="490" viewBox="0 0 678 490" fill="none" xmlns="http://www.w3.org/2000/svg">
<path d="M107.171 234.126C107.171 234.126 101.891 310.285 100.758 326.604C99.9805 336.834 98.0746 346.895 95.0901 356.524C95.0901 356.524 92.823 361.963 92.823 367.403V436.761C92.823 436.761 88.2889 436.761 89.4224 442.201C90.556 447.641 91.6895 457.16 91.6895 457.16H108.693C108.693 457.16 107.559 453.081 110.96 451.721C114.36 450.361 110.96 439.481 110.96 439.481L129.096 357.884L156.301 289.886C156.301 289.886 172.171 351.084 175.571 357.884C175.571 357.884 188.04 434.041 190.307 440.841C192.574 447.641 193.708 447.641 192.574 450.361C191.441 453.081 191.441 455.801 192.574 457.16C193.708 458.52 215.245 457.16 215.245 457.16L209.578 360.603L199.376 245.007L147.233 225.968L107.171 234.126Z" fill="#2F2E41"/>
<path d="M104.158 446.281C104.158 446.281 98.4907 421.801 89.4224 440.841C80.3541 459.88 80.3541 466.68 80.3541 466.68C80.3541 466.68 65.6181 492.519 86.0218 489.799C106.425 487.079 101.891 474.84 101.891 474.84C101.891 474.84 109.826 469.4 109.826 465.32C109.826 461.24 104.158 446.281 104.158 446.281Z" fill="#2F2E41"/>
<path d="M195.975 443.561C195.975 443.561 201.643 419.082 210.711 438.121C219.779 457.16 219.779 463.96 219.779 463.96C219.779 463.96 234.515 489.799 214.112 487.079C193.708 484.36 198.242 472.12 198.242 472.12C198.242 472.12 190.307 466.68 190.307 462.6C190.307 458.52 195.975 443.561 195.975 443.561Z" fill="#2F2E41"/>
<path d="M142.699 50.5329C142.699 50.5329 144.966 68.2123 138.165 72.2922C131.363 76.3721 152.901 91.3316 158.568 91.3316C164.236 91.3316 174.438 77.732 174.438 77.732C174.438 77.732 168.77 57.3327 169.904 53.2528L142.699 50.5329Z" fill="#A0616A"/>
<path d="M155.168 64.1325C168.314 64.1325 178.972 51.3461 178.972 35.5733C178.972 19.8006 168.314 7.01421 155.168 7.01421C142.021 7.01421 131.363 19.8006 131.363 35.5733C131.363 51.3461 142.021 64.1325 155.168 64.1325Z" fill="#A0616A"/>
<path d="M201.643 94.0515L173.305 73.4533C173.305 73.4533 157.182 95.4115 139.739 70.9323L109.826 80.452L114.36 172.929C114.36 172.929 107.559 209.648 109.826 216.448C112.093 223.248 104.158 225.967 106.426 227.327C108.693 228.687 106.426 238.207 106.426 238.207C106.426 238.207 150.634 265.406 199.376 245.007L194.842 227.327C195.459 225.016 195.574 222.555 195.178 220.175C194.781 217.795 193.885 215.576 192.574 213.728C192.574 213.728 197.109 205.568 191.441 198.768C191.441 198.768 193.708 186.529 188.04 181.089L186.907 162.049L190.307 152.53L201.643 94.0515Z" fill="#CFCCE0"/>
<path d="M142.985 22.3125C142.985 22.3125 140.147 29.681 151.499 26.7336C151.499 26.7336 155.756 29.681 155.756 25.2599C155.756 25.2599 161.432 32.6284 162.851 28.2073C164.27 23.7862 167.108 29.681 167.108 29.681L169.946 22.3125L172.784 26.7336H182.717C182.717 26.7336 185.555 -2.74019 151.499 0.207194C117.444 3.15458 134.197 49.8529 134.197 49.8529C134.197 49.8529 134.471 41.4705 137.309 45.8916C140.147 50.3126 142.985 22.3125 142.985 22.3125Z" fill="#2F2E41"/>
<path d="M211.845 148.45L212.978 177.009C212.978 177.009 217.512 230.047 208.444 253.167V265.406C208.444 265.406 206.177 296.685 194.842 295.325C183.506 293.965 198.242 250.447 198.242 250.447L195.975 190.609L193.708 156.61L211.845 148.45Z" fill="#A0616A"/>
<path d="M189.174 95.4115L200.481 93.2074C208.627 102.597 214.176 114.758 216.379 128.05C219.779 149.81 220.913 153.89 220.913 153.89L193.708 162.049L178.972 128.05L189.174 95.4115Z" fill="#CFCCE0"/>
<path d="M319.37 79.8912H140.487V186.502H319.37V79.8912Z" fill="white"/>
<path d="M160.02 86.3023C155.424 82.9866 149.882 83.2399 147.776 83.4931C148.578 85.843 150.985 91.8366 155.581 95.154C160.188 98.4781 165.722 98.2172 167.825 97.9657C167.023 95.6167 164.616 89.6205 160.02 86.3023Z" fill="#6C63FF"/>
<path d="M181.615 152.097H152.892C152.042 152.096 151.201 152.295 150.416 152.685C149.631 153.074 148.918 153.645 148.317 154.365C147.716 155.085 147.24 155.94 146.914 156.881C146.589 157.823 146.422 158.832 146.422 159.851C146.422 160.87 146.589 161.878 146.914 162.82C147.24 163.761 147.716 164.616 148.317 165.336C148.918 166.056 149.631 166.627 150.416 167.016C151.201 167.406 152.042 167.605 152.892 167.604H181.615C182.464 167.605 183.306 167.406 184.09 167.016C184.875 166.627 185.589 166.056 186.19 165.336C186.79 164.616 187.267 163.761 187.592 162.82C187.918 161.878 188.085 160.87 188.085 159.851C188.085 158.832 187.918 157.823 187.592 156.881C187.267 155.94 186.79 155.085 186.19 154.365C185.589 153.645 184.875 153.074 184.09 152.685C183.306 152.295 182.464 152.096 181.615 152.097V152.097Z" fill="#6C63FF"/>
<path d="M311.685 70.2523H150.641C148.768 70.2523 146.913 70.695 145.182 71.5551C143.451 72.4152 141.879 73.6759 140.554 75.2652C139.229 76.8544 138.178 78.7412 137.462 80.8177C136.745 82.8942 136.376 85.1198 136.376 87.3674V181.504C136.376 186.043 137.879 190.396 140.554 193.606C143.229 196.816 146.858 198.619 150.641 198.619H311.685C315.469 198.619 319.097 196.816 321.772 193.606C324.448 190.396 325.951 186.043 325.951 181.504V87.3674C325.951 85.1198 325.582 82.8942 324.865 80.8177C324.148 78.7412 323.097 76.8544 321.772 75.2652C320.448 73.6759 318.875 72.4152 317.144 71.5551C315.414 70.695 313.558 70.2523 311.685 70.2523V70.2523ZM146.657 81.9274C146.975 81.8584 154.516 80.3188 160.76 84.8266C167.004 89.3336 169.403 98.049 169.502 98.4175L169.754 99.3572L168.944 99.5297C167.788 99.7462 166.619 99.8492 165.449 99.8377C161.738 99.9228 158.075 98.8152 154.84 96.6297C148.596 92.1235 146.198 83.4081 146.099 83.0396L145.846 82.0999L146.657 81.9274ZM181.615 169.327H152.892C150.797 169.327 148.788 168.329 147.306 166.552C145.825 164.774 144.993 162.364 144.993 159.851C144.993 157.337 145.825 154.927 147.306 153.149C148.788 151.372 150.797 150.374 152.892 150.374H181.615C183.71 150.374 185.719 151.372 187.201 153.149C188.682 154.927 189.514 157.337 189.514 159.851C189.514 162.364 188.682 164.774 187.201 166.552C185.719 168.329 183.71 169.327 181.615 169.327V169.327ZM312.307 167.604C312.3 170.344 311.39 172.969 309.776 174.906C308.161 176.843 305.973 177.935 303.69 177.943H282.147C279.864 177.935 277.676 176.843 276.062 174.906C274.447 172.969 273.537 170.344 273.53 167.604V152.097C273.537 149.357 274.447 146.733 276.062 144.795C277.676 142.858 279.864 141.767 282.147 141.759H303.69C305.973 141.767 308.161 142.858 309.776 144.795C311.39 146.733 312.3 149.357 312.307 152.097V167.604Z" fill="#6C63FF"/>
<path d="M288.969 164.589H279.634C278.967 164.589 278.328 164.907 277.857 165.472C277.386 166.038 277.121 166.805 277.121 167.604C277.121 168.404 277.386 169.171 277.857 169.736C278.328 170.302 278.967 170.62 279.634 170.62H288.969C289.636 170.62 290.275 170.302 290.746 169.736C291.218 169.171 291.482 168.404 291.482 167.604C291.482 166.805 291.218 166.038 290.746 165.472C290.275 164.907 289.636 164.589 288.969 164.589V164.589ZM288.969 168.897H279.634C279.492 168.897 279.352 168.864 279.221 168.799C279.09 168.734 278.971 168.639 278.871 168.519C278.77 168.399 278.691 168.257 278.636 168.1C278.582 167.943 278.554 167.774 278.554 167.604C278.554 167.434 278.582 167.266 278.636 167.109C278.691 166.952 278.77 166.809 278.871 166.689C278.971 166.569 279.09 166.474 279.221 166.409C279.352 166.345 279.492 166.312 279.634 166.312H288.969C289.254 166.313 289.528 166.449 289.729 166.692C289.93 166.934 290.043 167.262 290.043 167.604C290.043 167.946 289.93 168.275 289.729 168.517C289.528 168.759 289.254 168.896 288.969 168.897V168.897Z" fill="#6C63FF"/>
<path d="M306.203 164.589H296.868C296.202 164.589 295.562 164.907 295.091 165.472C294.62 166.038 294.355 166.805 294.355 167.604C294.355 168.404 294.62 169.171 295.091 169.736C295.562 170.302 296.202 170.62 296.868 170.62H306.203C306.87 170.62 307.509 170.302 307.98 169.736C308.452 169.171 308.717 168.404 308.717 167.604C308.717 166.805 308.452 166.038 307.98 165.472C307.509 164.907 306.87 164.589 306.203 164.589V164.589ZM306.203 168.897H296.868C296.726 168.897 296.586 168.864 296.455 168.799C296.324 168.734 296.205 168.639 296.105 168.519C296.004 168.399 295.925 168.257 295.87 168.1C295.816 167.943 295.788 167.774 295.788 167.604C295.788 167.434 295.816 167.266 295.87 167.109C295.925 166.952 296.004 166.809 296.105 166.689C296.205 166.569 296.324 166.474 296.455 166.409C296.586 166.345 296.726 166.312 296.868 166.312H306.203C306.488 166.313 306.762 166.449 306.963 166.692C307.164 166.934 307.278 167.262 307.278 167.604C307.278 167.946 307.164 168.275 306.963 168.517C306.762 168.759 306.488 168.896 306.203 168.897V168.897Z" fill="#6C63FF"/>
<path d="M288.969 156.835H279.634C278.967 156.835 278.328 157.153 277.857 157.718C277.386 158.284 277.121 159.051 277.121 159.851C277.121 160.65 277.386 161.417 277.857 161.983C278.328 162.548 278.967 162.866 279.634 162.866H288.969C289.636 162.866 290.275 162.548 290.746 161.983C291.218 161.417 291.482 160.65 291.482 159.851C291.482 159.051 291.218 158.284 290.746 157.718C290.275 157.153 289.636 156.835 288.969 156.835V156.835ZM288.969 161.143H279.634C279.493 161.143 279.353 161.109 279.222 161.044C279.091 160.98 278.972 160.884 278.872 160.764C278.772 160.644 278.693 160.502 278.639 160.345C278.585 160.188 278.557 160.02 278.557 159.851C278.557 159.681 278.585 159.513 278.639 159.356C278.693 159.199 278.772 159.057 278.872 158.937C278.972 158.817 279.091 158.722 279.222 158.657C279.353 158.592 279.493 158.558 279.634 158.558H288.969C289.111 158.558 289.251 158.592 289.381 158.657C289.512 158.722 289.631 158.817 289.731 158.937C289.831 159.057 289.91 159.199 289.964 159.356C290.018 159.513 290.046 159.681 290.046 159.851C290.046 160.02 290.018 160.188 289.964 160.345C289.91 160.502 289.831 160.644 289.731 160.764C289.631 160.884 289.512 160.98 289.381 161.044C289.251 161.109 289.111 161.143 288.969 161.143V161.143Z" fill="#6C63FF"/>
<path d="M306.203 156.835H296.868C296.202 156.835 295.562 157.153 295.091 157.718C294.62 158.284 294.355 159.051 294.355 159.851C294.355 160.65 294.62 161.417 295.091 161.983C295.562 162.548 296.202 162.866 296.868 162.866H306.203C306.87 162.866 307.509 162.548 307.98 161.983C308.452 161.417 308.717 160.65 308.717 159.851C308.717 159.051 308.452 158.284 307.98 157.718C307.509 157.153 306.87 156.835 306.203 156.835V156.835ZM306.203 161.143H296.868C296.727 161.143 296.587 161.109 296.456 161.044C296.325 160.98 296.206 160.884 296.106 160.764C296.006 160.644 295.927 160.502 295.873 160.345C295.819 160.188 295.791 160.02 295.791 159.851C295.791 159.681 295.819 159.513 295.873 159.356C295.927 159.199 296.006 159.057 296.106 158.937C296.206 158.817 296.325 158.722 296.456 158.657C296.587 158.592 296.727 158.558 296.868 158.558H306.203C306.345 158.558 306.485 158.592 306.615 158.657C306.746 158.722 306.865 158.817 306.965 158.937C307.065 159.057 307.144 159.199 307.198 159.356C307.253 159.513 307.28 159.681 307.28 159.851C307.28 160.02 307.253 160.188 307.198 160.345C307.144 160.502 307.065 160.644 306.965 160.764C306.865 160.884 306.746 160.98 306.615 161.044C306.485 161.109 306.345 161.143 306.203 161.143V161.143Z" fill="#6C63FF"/>
<path d="M288.969 149.082H279.634C278.967 149.082 278.328 149.399 277.857 149.965C277.386 150.53 277.121 151.297 277.121 152.097C277.121 152.897 277.386 153.664 277.857 154.229C278.328 154.795 278.967 155.112 279.634 155.112H288.969C289.636 155.112 290.275 154.795 290.746 154.229C291.218 153.664 291.482 152.897 291.482 152.097C291.482 151.297 291.218 150.53 290.746 149.965C290.275 149.399 289.636 149.082 288.969 149.082V149.082ZM288.969 153.389H279.634C279.492 153.39 279.352 153.357 279.221 153.292C279.09 153.227 278.971 153.132 278.871 153.012C278.77 152.892 278.691 152.749 278.636 152.592C278.582 152.435 278.554 152.267 278.554 152.097C278.554 151.927 278.582 151.759 278.636 151.602C278.691 151.445 278.77 151.302 278.871 151.182C278.971 151.062 279.09 150.967 279.221 150.902C279.352 150.837 279.492 150.804 279.634 150.805H288.969C289.254 150.806 289.528 150.942 289.729 151.184C289.93 151.427 290.043 151.755 290.043 152.097C290.043 152.439 289.93 152.767 289.729 153.009C289.528 153.252 289.254 153.388 288.969 153.389V153.389Z" fill="#6C63FF"/>
<path d="M306.203 149.082H296.868C296.202 149.082 295.562 149.399 295.091 149.965C294.62 150.53 294.355 151.297 294.355 152.097C294.355 152.897 294.62 153.664 295.091 154.229C295.562 154.795 296.202 155.112 296.868 155.112H306.203C306.87 155.112 307.509 154.795 307.98 154.229C308.452 153.664 308.717 152.897 308.717 152.097C308.717 151.297 308.452 150.53 307.98 149.965C307.509 149.399 306.87 149.082 306.203 149.082V149.082ZM306.203 153.389H296.868C296.726 153.39 296.586 153.357 296.455 153.292C296.324 153.227 296.205 153.132 296.105 153.012C296.004 152.892 295.925 152.749 295.87 152.592C295.816 152.435 295.788 152.267 295.788 152.097C295.788 151.927 295.816 151.759 295.87 151.602C295.925 151.445 296.004 151.302 296.105 151.182C296.205 151.062 296.324 150.967 296.455 150.902C296.586 150.837 296.726 150.804 296.868 150.805H306.203C306.488 150.806 306.762 150.942 306.963 151.184C307.164 151.427 307.278 151.755 307.278 152.097C307.278 152.439 307.164 152.767 306.963 153.009C306.762 153.252 306.488 153.388 306.203 153.389V153.389Z" fill="#6C63FF"/>
<path d="M92.823 132.13C92.823 132.13 82.6212 183.809 95.0901 183.809C107.559 183.809 137.031 125.331 137.031 125.331C137.031 125.331 167.637 106.291 155.168 99.4914C142.699 92.6916 126.829 110.371 126.829 110.371L108.518 140.872L107.559 125.331L92.823 132.13Z" fill="#A0616A"/>
<path d="M116.627 88.6117L109.826 80.452C109.826 80.452 96.2236 89.9717 95.0901 99.4914C93.9566 109.011 88.2889 138.93 88.2889 138.93L109.259 140.97L116.061 128.73L116.627 88.6117Z" fill="#CFCCE0"/>
<path d="M438.815 69.2659C437.961 66.2408 427.252 55.9575 433.814 54.2291L439.196 62.8376L463.936 33.1557L466.425 36.141L438.815 69.2659Z" fill="#6C63FF"/>
<path d="M438.815 170.197C437.961 167.172 427.252 156.888 433.814 155.16L439.196 163.769L463.936 134.087L466.425 137.072L438.815 170.197Z" fill="#6C63FF"/>
<path d="M438.815 272.57C437.961 269.545 427.252 259.261 433.814 257.533L439.196 266.142L463.936 236.46L466.425 239.445L438.815 272.57Z" fill="#6C63FF"/>
<path d="M513.754 66.1521C517.97 66.1521 521.388 62.0513 521.388 56.9927C521.388 51.9341 517.97 47.8333 513.754 47.8333C509.537 47.8333 506.119 51.9341 506.119 56.9927C506.119 62.0513 509.537 66.1521 513.754 66.1521Z" fill="#3F3D56"/>
<path d="M665.297 56.0767H542.383V57.9086H665.297V56.0767Z" fill="#3F3D56"/>
<path d="M513.754 167.083C517.97 167.083 521.388 162.982 521.388 157.924C521.388 152.865 517.97 148.764 513.754 148.764C509.537 148.764 506.119 152.865 506.119 157.924C506.119 162.982 509.537 167.083 513.754 167.083Z" fill="#3F3D56"/>
<path d="M665.297 157.008H542.383V158.84H665.297V157.008Z" fill="#3F3D56"/>
<path d="M513.754 269.456C517.97 269.456 521.388 265.355 521.388 260.297C521.388 255.238 517.97 251.137 513.754 251.137C509.537 251.137 506.119 255.238 506.119 260.297C506.119 265.355 509.537 269.456 513.754 269.456Z" fill="#3F3D56"/>
<path d="M665.297 259.38H542.383V261.212H665.297V259.38Z" fill="#3F3D56"/>
<path d="M458.098 286.217H419.925V239.504H445.882V241.336H421.452V284.385H456.571V263.319H458.098V286.217Z" fill="#3F3D56"/>
<path d="M458.098 183.632H419.925V136.919H445.882V138.751H421.452V181.8H456.571V160.734H458.098V183.632Z" fill="#3F3D56"/>
<path d="M458.098 79.215H419.925V32.5021H445.882V34.334H421.452V77.3832H456.571V56.3166H458.098V79.215Z" fill="#3F3D56"/>
<path d="M326 79C315.523 79 307 72.7197 307 64.9999C307 57.2803 315.523 51 326 51C336.477 51 345 57.2803 345 64.9999C345 72.7197 336.477 79 326 79ZM326 54.5374C318.335 54.5374 312.1 59.2308 312.1 64.9999C312.1 70.7689 318.335 75.4626 326 75.4626C333.665 75.4626 339.9 70.7689 339.9 64.9999C339.9 59.2308 333.665 54.5374 326 54.5374Z" fill="#6C63FF"/>
<path d="M344.016 108H307.984C304.807 107.997 301.761 107.087 299.514 105.469C297.267 103.85 296.004 101.656 296 99.3676V73.9101C296.002 72.3432 296.868 70.841 298.406 69.733C299.944 68.625 302.03 68.0018 304.205 68H347.795C349.97 68.0018 352.056 68.625 353.594 69.733C355.132 70.841 355.998 72.3432 356 73.9101V99.3676C355.996 101.656 354.733 103.85 352.486 105.469C350.239 107.087 347.193 107.997 344.016 108Z" fill="#3F3D56"/>
<path d="M333 83.3445C333.001 82.5728 332.67 81.8149 332.042 81.1488C331.413 80.4828 330.51 79.9326 329.425 79.5551C328.34 79.1775 327.112 78.9862 325.868 79.0008C324.623 79.0154 323.408 79.2354 322.347 79.6381C321.285 80.0409 320.416 80.6118 319.829 81.2922C319.241 81.9725 318.957 82.7376 319.005 83.5087C319.053 84.2798 319.432 85.0291 320.102 85.6793C320.772 86.3295 321.71 86.8571 322.818 87.2079V94H329.182V87.2079C330.331 86.8448 331.295 86.2918 331.969 85.61C332.643 84.9282 333 84.1441 333 83.3445V83.3445Z" fill="white"/>
</svg>
