<svg width="70" height="70" viewBox="0 0 70 70" fill="none" xmlns="http://www.w3.org/2000/svg">
<path d="M35.2017 69.9991C34.0519 69.9955 32.9072 69.8558 31.7944 69.5833L31.575 69.526L31.3716 69.4299C24.0154 65.9505 17.8094 61.3547 12.9259 55.7702C8.88336 51.1202 5.73164 45.8407 3.61243 40.169C1.07818 33.3785 -0.141043 26.2135 0.0129643 19.016C0.0160718 18.8649 0.0187018 18.7483 0.0187018 18.6679C0.0187018 15.1691 2.07738 12.0992 5.26342 10.8469C7.70186 9.88838 29.8417 1.30969 31.4413 0.689854C34.4539 -0.734155 37.6678 0.454404 38.1822 0.662252C39.3358 1.10721 59.8027 9.00432 64.2256 10.9911C68.7838 13.0388 70 16.7173 70 18.568C70 26.9468 68.4618 34.7775 65.428 41.8426C62.9779 47.5612 59.5053 52.8406 55.1616 57.4508C46.7809 66.3479 38.3979 69.502 38.317 69.5298C37.3151 69.855 36.2611 70.0138 35.2017 69.9991ZM33.2303 65.3924C33.957 65.5461 35.6303 65.7767 36.7209 65.4014C38.1064 64.9247 45.1228 61.4924 51.6794 54.5318C60.7384 44.9146 65.3349 32.8251 65.3416 18.5989C65.3255 18.3107 65.1085 16.2551 62.2228 14.9588C57.8857 13.0105 36.6121 4.80437 36.3977 4.72166L36.3389 4.69815C35.8931 4.52191 34.4743 4.15069 33.4962 4.63417L33.3004 4.7203C33.0633 4.81217 9.56159 13.9181 7.05512 14.9033C5.30178 15.5925 4.67706 17.2999 4.67706 18.6679C4.67706 18.7679 4.67432 18.9133 4.67045 19.1012C4.47013 28.8353 6.85788 52.7879 33.2303 65.3924Z" fill="#3F3D56"/>
</svg>
